<?xml version="1.0" encoding="us-ascii" standalone="no"?><svg xmlns="http://www.w3.org/2000/svg" xmlns:xlink="http://www.w3.org/1999/xlink" contentStyleType="text/css" height="819px" preserveAspectRatio="none" style="width:974px;height:819px;background:#FFFFFF;" version="1.1" viewBox="0 0 974 819" width="974px" zoomAndPan="magnify"><defs/><g><rect fill="#FFD700" height="168.7969" style="stroke:#000000;stroke-width:1.5;" width="958" x="10" y="86.5938"/><rect fill="#FFA500" height="168.7969" style="stroke:#000000;stroke-width:1.5;" width="958" x="10" y="269.3906"/><rect fill="#FFC0CB" height="162.7969" style="stroke:#000000;stroke-width:1.5;" width="958" x="10" y="452.1875"/><rect fill="#00FFFF" height="104.5313" style="stroke:#000000;stroke-width:1.5;" width="560" x="10" y="628.9844"/><line style="stroke:#181818;stroke-width:0.5;stroke-dasharray:5.0,5.0;" x1="50" x2="50" y1="69.5938" y2="750.5156"/><line style="stroke:#181818;stroke-width:0.5;stroke-dasharray:5.0,5.0;" x1="251.5" x2="251.5" y1="69.5938" y2="750.5156"/><line style="stroke:#181818;stroke-width:0.5;stroke-dasharray:5.0,5.0;" x1="345.5" x2="345.5" y1="69.5938" y2="750.5156"/><line style="stroke:#181818;stroke-width:0.5;stroke-dasharray:5.0,5.0;" x1="500" x2="500" y1="69.5938" y2="750.5156"/><line style="stroke:#181818;stroke-width:0.5;stroke-dasharray:5.0,5.0;" x1="641" x2="641" y1="69.5938" y2="750.5156"/><line style="stroke:#181818;stroke-width:0.5;stroke-dasharray:5.0,5.0;" x1="776" x2="776" y1="69.5938" y2="750.5156"/><line style="stroke:#181818;stroke-width:0.5;stroke-dasharray:5.0,5.0;" x1="899" x2="899" y1="69.5938" y2="750.5156"/><text fill="#000000" font-family="sans-serif" font-size="14" lengthAdjust="spacing" textLength="54" x="20" y="66.292">&#1055;&#1088;&#1086;&#1077;&#1082;&#1090;</text><ellipse cx="50" cy="37.2969" fill="#E2E2F0" rx="12" ry="12" style="stroke:#181818;stroke-width:0.5;"/><polygon fill="#181818" points="46,25.2969,52,20.2969,50,25.2969,52,30.2969,46,25.2969" style="stroke:#181818;stroke-width:1.0;"/><text fill="#000000" font-family="sans-serif" font-size="14" lengthAdjust="spacing" textLength="54" x="20" y="762.5107">&#1055;&#1088;&#1086;&#1077;&#1082;&#1090;</text><ellipse cx="50" cy="781.8125" fill="#E2E2F0" rx="12" ry="12" style="stroke:#181818;stroke-width:0.5;"/><polygon fill="#181818" points="46,769.8125,52,764.8125,50,769.8125,52,774.8125,46,769.8125" style="stroke:#181818;stroke-width:1.0;"/><text fill="#000000" font-family="sans-serif" font-size="14" lengthAdjust="spacing" textLength="93" x="202.5" y="66.292">&#1059;&#1090;&#1074;&#1077;&#1088;&#1078;&#1076;&#1077;&#1085;&#1086;</text><ellipse cx="252" cy="37.2969" fill="#E2E2F0" rx="12" ry="12" style="stroke:#181818;stroke-width:0.5;"/><polygon fill="#181818" points="248,25.2969,254,20.2969,252,25.2969,254,30.2969,248,25.2969" style="stroke:#181818;stroke-width:1.0;"/><text fill="#000000" font-family="sans-serif" font-size="14" lengthAdjust="spacing" textLength="93" x="202.5" y="762.5107">&#1059;&#1090;&#1074;&#1077;&#1088;&#1078;&#1076;&#1077;&#1085;&#1086;</text><ellipse cx="252" cy="781.8125" fill="#E2E2F0" rx="12" ry="12" style="stroke:#181818;stroke-width:0.5;"/><polygon fill="#181818" points="248,769.8125,254,764.8125,252,769.8125,254,774.8125,248,769.8125" style="stroke:#181818;stroke-width:1.0;"/><text fill="#000000" font-family="sans-serif" font-size="14" lengthAdjust="spacing" textLength="63" x="311.5" y="66.292">&#1047;&#1072;&#1082;&#1088;&#1099;&#1090;&#1086;</text><ellipse cx="346" cy="37.2969" fill="#E2E2F0" rx="12" ry="12" style="stroke:#181818;stroke-width:0.5;"/><polygon fill="#181818" points="342,25.2969,348,20.2969,346,25.2969,348,30.2969,342,25.2969" style="stroke:#181818;stroke-width:1.0;"/><text fill="#000000" font-family="sans-serif" font-size="14" lengthAdjust="spacing" textLength="63" x="311.5" y="762.5107">&#1047;&#1072;&#1082;&#1088;&#1099;&#1090;&#1086;</text><ellipse cx="346" cy="781.8125" fill="#E2E2F0" rx="12" ry="12" style="stroke:#181818;stroke-width:0.5;"/><polygon fill="#181818" points="342,769.8125,348,764.8125,346,769.8125,348,774.8125,342,769.8125" style="stroke:#181818;stroke-width:1.0;"/><text fill="#000000" font-family="sans-serif" font-size="14" lengthAdjust="spacing" textLength="114" x="440" y="66.292">&#1057;&#1087;&#1080;&#1089;&#1072;&#1090;&#1100; &#1074; &#1076;&#1077;&#1083;&#1086;</text><ellipse cx="500" cy="37.2969" fill="#E2E2F0" rx="12" ry="12" style="stroke:#181818;stroke-width:0.5;"/><line style="stroke:#181818;stroke-width:0.5;" x1="488" x2="512" y1="51.2969" y2="51.2969"/><text fill="#000000" font-family="sans-serif" font-size="14" lengthAdjust="spacing" textLength="114" x="440" y="762.5107">&#1057;&#1087;&#1080;&#1089;&#1072;&#1090;&#1100; &#1074; &#1076;&#1077;&#1083;&#1086;</text><ellipse cx="500" cy="781.8125" fill="#E2E2F0" rx="12" ry="12" style="stroke:#181818;stroke-width:0.5;"/><line style="stroke:#181818;stroke-width:0.5;" x1="488" x2="512" y1="795.8125" y2="795.8125"/><text fill="#000000" font-family="sans-serif" font-size="14" lengthAdjust="spacing" textLength="136" x="570" y="66.292">&#1059;&#1076;&#1072;&#1083;&#1080;&#1090;&#1100; &#1076;&#1086;&#1082;&#1091;&#1084;&#1077;&#1085;&#1090;</text><ellipse cx="641" cy="37.2969" fill="#E2E2F0" rx="12" ry="12" style="stroke:#181818;stroke-width:0.5;"/><line style="stroke:#181818;stroke-width:0.5;" x1="629" x2="653" y1="51.2969" y2="51.2969"/><text fill="#000000" font-family="sans-serif" font-size="14" lengthAdjust="spacing" textLength="136" x="570" y="762.5107">&#1059;&#1076;&#1072;&#1083;&#1080;&#1090;&#1100; &#1076;&#1086;&#1082;&#1091;&#1084;&#1077;&#1085;&#1090;</text><ellipse cx="641" cy="781.8125" fill="#E2E2F0" rx="12" ry="12" style="stroke:#181818;stroke-width:0.5;"/><line style="stroke:#181818;stroke-width:0.5;" x1="629" x2="653" y1="795.8125" y2="795.8125"/><text fill="#000000" font-family="sans-serif" font-size="14" lengthAdjust="spacing" textLength="102" x="722" y="66.292">&#1059;&#1076;&#1072;&#1083;&#1080;&#1090;&#1100; &#1076;&#1077;&#1083;&#1086;</text><ellipse cx="776" cy="37.2969" fill="#E2E2F0" rx="12" ry="12" style="stroke:#181818;stroke-width:0.5;"/><line style="stroke:#181818;stroke-width:0.5;" x1="764" x2="788" y1="51.2969" y2="51.2969"/><text fill="#000000" font-family="sans-serif" font-size="14" lengthAdjust="spacing" textLength="102" x="722" y="762.5107">&#1059;&#1076;&#1072;&#1083;&#1080;&#1090;&#1100; &#1076;&#1077;&#1083;&#1086;</text><ellipse cx="776" cy="781.8125" fill="#E2E2F0" rx="12" ry="12" style="stroke:#181818;stroke-width:0.5;"/><line style="stroke:#181818;stroke-width:0.5;" x1="764" x2="788" y1="795.8125" y2="795.8125"/><text fill="#000000" font-family="sans-serif" font-size="14" lengthAdjust="spacing" textLength="74" x="857" y="49.9951">&#1055;&#1088;&#1086;&#1095;&#1077;&#1089;&#1090;&#1100;,</text><text fill="#000000" font-family="sans-serif" font-size="14" lengthAdjust="spacing" textLength="112" x="840" y="66.292">&#1080;&#1079;&#1084;&#1077;&#1085;&#1080;&#1090;&#1100; &#1076;&#1077;&#1083;&#1086;</text><ellipse cx="899" cy="21" fill="#E2E2F0" rx="12" ry="12" style="stroke:#181818;stroke-width:0.5;"/><line style="stroke:#181818;stroke-width:0.5;" x1="887" x2="911" y1="35" y2="35"/><text fill="#000000" font-family="sans-serif" font-size="14" lengthAdjust="spacing" textLength="74" x="857" y="762.5107">&#1055;&#1088;&#1086;&#1095;&#1077;&#1089;&#1090;&#1100;,</text><text fill="#000000" font-family="sans-serif" font-size="14" lengthAdjust="spacing" textLength="112" x="840" y="778.8076">&#1080;&#1079;&#1084;&#1077;&#1085;&#1080;&#1090;&#1100; &#1076;&#1077;&#1083;&#1086;</text><ellipse cx="899" cy="798.1094" fill="#E2E2F0" rx="12" ry="12" style="stroke:#181818;stroke-width:0.5;"/><line style="stroke:#181818;stroke-width:0.5;" x1="887" x2="911" y1="812.1094" y2="812.1094"/><path d="M10,86.5938 L74,86.5938 L74,93.7266 L64,103.7266 L10,103.7266 L10,86.5938 " fill="#FFFF00" style="stroke:#000000;stroke-width:1.5;"/><rect fill="none" height="168.7969" style="stroke:#000000;stroke-width:1.5;" width="958" x="10" y="86.5938"/><text fill="#000000" font-family="sans-serif" font-size="13" font-weight="bold" lengthAdjust="spacing" textLength="19" x="25" y="99.6606">alt</text><text fill="#000000" font-family="sans-serif" font-size="11" font-weight="bold" lengthAdjust="spacing" textLength="341" x="89" y="98.8042">[&#1048;&#1079; &#1089;&#1086;&#1089;&#1090;&#1086;&#1103;&#1085;&#1080;&#1103; &#1055;&#1088;&#1086;&#1077;&#1082;&#1090; &#1086;&#1090;&#1074;&#1077;&#1090;&#1089;&#1090;&#1074;&#1077;&#1085;&#1085;&#1099;&#1077; &#1079;&#1072; &#1076;&#1077;&#1083;&#1086; &#1084;&#1086;&#1075;&#1091;&#1090;]</text><polygon fill="#181818" points="240,123.8594,250,127.8594,240,131.8594,244,127.8594" style="stroke:#181818;stroke-width:1.0;"/><line style="stroke:#181818;stroke-width:1.0;" x1="50" x2="246" y1="127.8594" y2="127.8594"/><text fill="#000000" font-family="sans-serif" font-size="13" lengthAdjust="spacing" textLength="75" x="57" y="122.7935">&#1059;&#1090;&#1074;&#1077;&#1088;&#1076;&#1080;&#1090;&#1100;</text><path d="M257,108.7266 L257,133.7266 L670,133.7266 L670,118.7266 L660,108.7266 L257,108.7266 " fill="#FEFFDD" style="stroke:#181818;stroke-width:0.5;"/><path d="M660,108.7266 L660,118.7266 L670,118.7266 L660,108.7266 " fill="#FEFFDD" style="stroke:#181818;stroke-width:0.5;"/><text fill="#000000" font-family="sans-serif" font-size="13" lengthAdjust="spacing" textLength="392" x="263" y="125.7935">&#1042; &#1089;&#1086;&#1089;&#1090;&#1086;&#1103;&#1085;&#1080;&#1080; &#1059;&#1090;&#1074;&#1077;&#1088;&#1078;&#1076;&#1077;&#1085;&#1086; &#1074;&#1089;&#1077;&#1075;&#1076;&#1072; &#1089;&#1086;&#1079;&#1076;&#1072;&#1102;&#1090;&#1089;&#1103; &#1085;&#1086;&#1074;&#1099;&#1077; &#1075;&#1086;&#1076;&#1072;.</text><polygon fill="#181818" points="334,155.9922,344,159.9922,334,163.9922,338,159.9922" style="stroke:#181818;stroke-width:1.0;"/><line style="stroke:#181818;stroke-width:1.0;" x1="50" x2="340" y1="159.9922" y2="159.9922"/><text fill="#000000" font-family="sans-serif" font-size="13" lengthAdjust="spacing" textLength="60" x="57" y="154.9263">&#1047;&#1072;&#1082;&#1088;&#1099;&#1090;&#1100;</text><polygon fill="#181818" points="629,185.125,639,189.125,629,193.125,633,189.125" style="stroke:#181818;stroke-width:1.0;"/><line style="stroke:#181818;stroke-width:1.0;" x1="50" x2="635" y1="189.125" y2="189.125"/><text fill="#000000" font-family="sans-serif" font-size="13" lengthAdjust="spacing" textLength="196" x="57" y="184.0591">&#1059;&#1076;&#1072;&#1083;&#1103;&#1090;&#1100; &#1076;&#1086;&#1082;&#1091;&#1084;&#1077;&#1085;&#1090;&#1099; &#1080;&#1079; &#1076;&#1077;&#1083;&#1072;</text><polygon fill="#181818" points="764,214.2578,774,218.2578,764,222.2578,768,218.2578" style="stroke:#181818;stroke-width:1.0;"/><line style="stroke:#181818;stroke-width:1.0;" x1="50" x2="770" y1="218.2578" y2="218.2578"/><text fill="#000000" font-family="sans-serif" font-size="13" lengthAdjust="spacing" textLength="96" x="57" y="213.1919">&#1059;&#1076;&#1072;&#1083;&#1103;&#1090;&#1100; &#1076;&#1077;&#1083;&#1072;</text><polygon fill="#181818" points="887,243.3906,897,247.3906,887,251.3906,891,247.3906" style="stroke:#181818;stroke-width:1.0;"/><line style="stroke:#181818;stroke-width:1.0;" x1="50" x2="893" y1="247.3906" y2="247.3906"/><text fill="#000000" font-family="sans-serif" font-size="13" lengthAdjust="spacing" textLength="186" x="57" y="242.3247">&#1063;&#1080;&#1090;&#1072;&#1090;&#1100; &#1080;&#1083;&#1080; &#1080;&#1079;&#1084;&#1077;&#1085;&#1103;&#1090;&#1100; &#1076;&#1077;&#1083;&#1072;</text><path d="M10,269.3906 L74,269.3906 L74,276.5234 L64,286.5234 L10,286.5234 L10,269.3906 " fill="#008000" style="stroke:#000000;stroke-width:1.5;"/><rect fill="none" height="168.7969" style="stroke:#000000;stroke-width:1.5;" width="958" x="10" y="269.3906"/><text fill="#000000" font-family="sans-serif" font-size="13" font-weight="bold" lengthAdjust="spacing" textLength="19" x="25" y="282.4575">alt</text><text fill="#000000" font-family="sans-serif" font-size="11" font-weight="bold" lengthAdjust="spacing" textLength="376" x="89" y="281.6011">[&#1048;&#1079; &#1089;&#1086;&#1089;&#1090;&#1086;&#1103;&#1085;&#1080;&#1103; &#1059;&#1090;&#1074;&#1077;&#1088;&#1078;&#1076;&#1077;&#1085;&#1086; &#1086;&#1090;&#1074;&#1077;&#1090;&#1089;&#1090;&#1074;&#1077;&#1085;&#1085;&#1099;&#1077; &#1079;&#1072; &#1076;&#1077;&#1083;&#1086; &#1084;&#1086;&#1075;&#1091;&#1090;]</text><polygon fill="#181818" points="887,303.6563,897,307.6563,887,311.6563,891,307.6563" style="stroke:#181818;stroke-width:1.0;"/><line style="stroke:#181818;stroke-width:1.0;" x1="252" x2="893" y1="307.6563" y2="307.6563"/><text fill="#000000" font-family="sans-serif" font-size="13" lengthAdjust="spacing" textLength="186" x="259" y="302.5903">&#1063;&#1080;&#1090;&#1072;&#1090;&#1100; &#1080;&#1083;&#1080; &#1080;&#1079;&#1084;&#1077;&#1085;&#1103;&#1090;&#1100; &#1076;&#1077;&#1083;&#1072;</text><polygon fill="#181818" points="629,332.7891,639,336.7891,629,340.7891,633,336.7891" style="stroke:#181818;stroke-width:1.0;"/><line style="stroke:#181818;stroke-width:1.0;" x1="252" x2="635" y1="336.7891" y2="336.7891"/><text fill="#000000" font-family="sans-serif" font-size="13" lengthAdjust="spacing" textLength="196" x="259" y="331.7231">&#1059;&#1076;&#1072;&#1083;&#1103;&#1090;&#1100; &#1076;&#1086;&#1082;&#1091;&#1084;&#1077;&#1085;&#1090;&#1099; &#1080;&#1079; &#1076;&#1077;&#1083;&#1072;</text><line style="stroke:#181818;stroke-width:2.0;" x1="758" x2="768" y1="360.9219" y2="370.9219"/><line style="stroke:#181818;stroke-width:2.0;" x1="758" x2="768" y1="370.9219" y2="360.9219"/><line style="stroke:#181818;stroke-width:1.0;" x1="252" x2="763" y1="365.9219" y2="365.9219"/><text fill="#000000" font-family="sans-serif" font-size="13" lengthAdjust="spacing" textLength="96" x="259" y="360.856">&#1059;&#1076;&#1072;&#1083;&#1103;&#1090;&#1100; &#1076;&#1077;&#1083;&#1072;</text><polygon fill="#181818" points="61,394.0547,51,398.0547,61,402.0547,57,398.0547" style="stroke:#181818;stroke-width:1.0;"/><line style="stroke:#181818;stroke-width:1.0;" x1="55" x2="251" y1="398.0547" y2="398.0547"/><text fill="#000000" font-family="sans-serif" font-size="13" lengthAdjust="spacing" textLength="122" x="67" y="392.9888">&#1042;&#1077;&#1088;&#1085;&#1091;&#1090;&#1100; &#1074; &#1087;&#1088;&#1086;&#1077;&#1082;&#1090;</text><path d="M257,378.9219 L257,403.9219 L635,403.9219 L635,388.9219 L625,378.9219 L257,378.9219 " fill="#FEFFDD" style="stroke:#181818;stroke-width:0.5;"/><path d="M625,378.9219 L625,388.9219 L635,388.9219 L625,378.9219 " fill="#FEFFDD" style="stroke:#181818;stroke-width:0.5;"/><text fill="#000000" font-family="sans-serif" font-size="13" lengthAdjust="spacing" textLength="357" x="263" y="395.9888">&#1042; &#1089;&#1086;&#1089;&#1090;&#1086;&#1103;&#1085;&#1080;&#1080; &#1055;&#1088;&#1086;&#1077;&#1082;&#1090; &#1074;&#1089;&#1077;&#1075;&#1076;&#1072; &#1089;&#1086;&#1079;&#1076;&#1072;&#1102;&#1090;&#1089;&#1103; &#1085;&#1086;&#1074;&#1099;&#1077; &#1076;&#1077;&#1083;&#1072;.</text><polygon fill="#181818" points="334,426.1875,344,430.1875,334,434.1875,338,430.1875" style="stroke:#181818;stroke-width:1.0;"/><line style="stroke:#181818;stroke-width:1.0;" x1="252" x2="340" y1="430.1875" y2="430.1875"/><text fill="#000000" font-family="sans-serif" font-size="13" lengthAdjust="spacing" textLength="60" x="259" y="425.1216">&#1047;&#1072;&#1082;&#1088;&#1099;&#1090;&#1100;</text><path d="M10,452.1875 L74,452.1875 L74,459.3203 L64,469.3203 L10,469.3203 L10,452.1875 " fill="#800080" style="stroke:#000000;stroke-width:1.5;"/><rect fill="none" height="162.7969" style="stroke:#000000;stroke-width:1.5;" width="958" x="10" y="452.1875"/><text fill="#000000" font-family="sans-serif" font-size="13" font-weight="bold" lengthAdjust="spacing" textLength="19" x="25" y="465.2544">alt</text><text fill="#000000" font-family="sans-serif" font-size="11" font-weight="bold" lengthAdjust="spacing" textLength="350" x="89" y="464.3979">[&#1048;&#1079; &#1089;&#1086;&#1089;&#1090;&#1086;&#1103;&#1085;&#1080;&#1103; &#1047;&#1072;&#1082;&#1088;&#1099;&#1090;&#1086; &#1086;&#1090;&#1074;&#1077;&#1090;&#1089;&#1090;&#1074;&#1077;&#1085;&#1085;&#1099;&#1077; &#1079;&#1072; &#1076;&#1077;&#1083;&#1086; &#1084;&#1086;&#1075;&#1091;&#1090;]</text><polygon fill="#181818" points="887,486.4531,897,490.4531,887,494.4531,891,490.4531" style="stroke:#181818;stroke-width:1.0;"/><line style="stroke:#181818;stroke-width:1.0;" x1="346" x2="893" y1="490.4531" y2="490.4531"/><text fill="#000000" font-family="sans-serif" font-size="13" lengthAdjust="spacing" textLength="186" x="353" y="485.3872">&#1063;&#1080;&#1090;&#1072;&#1090;&#1100; &#1080;&#1083;&#1080; &#1080;&#1079;&#1084;&#1077;&#1085;&#1103;&#1090;&#1100; &#1076;&#1077;&#1083;&#1072;</text><polygon fill="#181818" points="629,515.5859,639,519.5859,629,523.5859,633,519.5859" style="stroke:#181818;stroke-width:1.0;"/><line style="stroke:#181818;stroke-width:1.0;" x1="346" x2="635" y1="519.5859" y2="519.5859"/><text fill="#000000" font-family="sans-serif" font-size="13" lengthAdjust="spacing" textLength="196" x="353" y="514.52">&#1059;&#1076;&#1072;&#1083;&#1103;&#1090;&#1100; &#1076;&#1086;&#1082;&#1091;&#1084;&#1077;&#1085;&#1090;&#1099; &#1080;&#1079; &#1076;&#1077;&#1083;&#1072;</text><line style="stroke:#181818;stroke-width:2.0;" x1="758" x2="768" y1="543.7188" y2="553.7188"/><line style="stroke:#181818;stroke-width:2.0;" x1="758" x2="768" y1="553.7188" y2="543.7188"/><line style="stroke:#181818;stroke-width:1.0;" x1="346" x2="763" y1="548.7188" y2="548.7188"/><text fill="#000000" font-family="sans-serif" font-size="13" lengthAdjust="spacing" textLength="96" x="353" y="543.6528">&#1059;&#1076;&#1072;&#1083;&#1103;&#1090;&#1100; &#1076;&#1077;&#1083;&#1072;</text><polygon fill="#181818" points="61,573.8516,51,577.8516,61,581.8516,57,577.8516" style="stroke:#181818;stroke-width:1.0;"/><line style="stroke:#181818;stroke-width:1.0;" x1="55" x2="345" y1="577.8516" y2="577.8516"/><text fill="#000000" font-family="sans-serif" font-size="13" lengthAdjust="spacing" textLength="122" x="67" y="572.7856">&#1042;&#1077;&#1088;&#1085;&#1091;&#1090;&#1100; &#1074; &#1087;&#1088;&#1086;&#1077;&#1082;&#1090;</text><polygon fill="#181818" points="61,602.9844,51,606.9844,61,610.9844,57,606.9844" style="stroke:#181818;stroke-width:1.0;"/><line style="stroke:#181818;stroke-width:1.0;" x1="55" x2="345" y1="606.9844" y2="606.9844"/><text fill="#000000" font-family="sans-serif" font-size="13" lengthAdjust="spacing" textLength="159" x="67" y="601.9185">&#1042;&#1077;&#1088;&#1085;&#1091;&#1090;&#1100; &#1074; &#1091;&#1090;&#1074;&#1077;&#1088;&#1078;&#1076;&#1077;&#1085;&#1086;</text><path d="M10,628.9844 L74,628.9844 L74,636.1172 L64,646.1172 L10,646.1172 L10,628.9844 " fill="#ADD8E6" style="stroke:#000000;stroke-width:1.5;"/><rect fill="none" height="104.5313" style="stroke:#000000;stroke-width:1.5;" width="560" x="10" y="628.9844"/><text fill="#000000" font-family="sans-serif" font-size="13" font-weight="bold" lengthAdjust="spacing" textLength="19" x="25" y="642.0513">alt</text><text fill="#000000" font-family="sans-serif" font-size="11" font-weight="bold" lengthAdjust="spacing" textLength="203" x="89" y="641.1948">[&#1057;&#1087;&#1080;&#1089;&#1072;&#1085;&#1080;&#1077; &#1076;&#1086;&#1082;&#1091;&#1084;&#1077;&#1085;&#1090;&#1086;&#1074; &#1074; &#1076;&#1077;&#1083;&#1086;]</text><line style="stroke:#181818;stroke-width:2.0;" x1="57" x2="67" y1="662.25" y2="672.25"/><line style="stroke:#181818;stroke-width:2.0;" x1="57" x2="67" y1="672.25" y2="662.25"/><line style="stroke:#181818;stroke-width:1.0;" x1="62" x2="499" y1="667.25" y2="667.25"/><text fill="#000000" font-family="sans-serif" font-size="13" lengthAdjust="spacing" textLength="426" x="67" y="662.1841">&#1047;&#1072;&#1087;&#1088;&#1077;&#1097;&#1077;&#1085;&#1086; &#1089;&#1087;&#1080;&#1089;&#1099;&#1074;&#1072;&#1090;&#1100; &#1076;&#1086;&#1082;&#1091;&#1084;&#1077;&#1085;&#1090;&#1099; &#1074; &#1076;&#1077;&#1083;&#1072; &#1074; &#1089;&#1086;&#1089;&#1090;&#1086;&#1103;&#1085;&#1080;&#1080; &#1055;&#1088;&#1086;&#1077;&#1082;&#1090;</text><polygon fill="#181818" points="61,692.3828,51,696.3828,61,700.3828,57,696.3828" style="stroke:#181818;stroke-width:1.0;"/><line style="stroke:#181818;stroke-width:1.0;" x1="55" x2="251" y1="696.3828" y2="696.3828"/><text fill="#000000" font-family="sans-serif" font-size="13" lengthAdjust="spacing" textLength="178" x="67" y="691.3169">&#1057;&#1087;&#1080;&#1089;&#1072;&#1090;&#1100; &#1076;&#1086;&#1082;&#1091;&#1084;&#1077;&#1085;&#1090; &#1074; &#1076;&#1077;&#1083;&#1086;</text><polygon fill="#181818" points="61,721.5156,51,725.5156,61,729.5156,57,725.5156" style="stroke:#181818;stroke-width:1.0;"/><line style="stroke:#181818;stroke-width:1.0;" x1="55" x2="345" y1="725.5156" y2="725.5156"/><text fill="#000000" font-family="sans-serif" font-size="13" lengthAdjust="spacing" textLength="178" x="67" y="720.4497">&#1057;&#1087;&#1080;&#1089;&#1072;&#1090;&#1100; &#1076;&#1086;&#1082;&#1091;&#1084;&#1077;&#1085;&#1090; &#1074; &#1076;&#1077;&#1083;&#1086;</text><!--SRC=[fLNBJjjG4DtxAqPasx98p4CikknNi0d1IgDQTkGQjTc1MI2Kgf7OjBiAiM1hEJ5Oj36_CFD7dRdsZHzn83MRw2htd9apvupjWUludci3_gPpJ3769mgW_mK-kcxN6EZBEmemmfWX3xXWq1BJ7DGhG3ynPFOvJHcihqt3SloHFu4TlCLdJEW2GmheEs04gj8VJ7Tox5w1lUExaE-I3BjWPKzqYN-bDGMQiFy2eLBve02gCUcAPxaGw3iuTZ31nwpq1lgXOVHjlpEnRDlz2fsXQvy2_i97u6bIgSE_CyMULNta_pFV0eMAL8ybJJ46RXck6W6tJt5EbnGOOZoy_w2yFIexlyZK6OxhM-2DXfzy0s_M963Id1P6Z8nnBZuf4WlW8_rGsbWtWnYZfCtvo7UxxDefIBkoAFEeaZGBAbtkY-8i2ferPaTJ4B_rw66PVT34NaCTCkfUlD2Rb4ZkKAHOv_8KAh-XPraET5olxmojpG4skjSko5vRoILkEqk5_UrrJtMJBgDkrCnBqPu_dy_5Ac-nTPN5_uzjo-LKjwstSTjqckCpRsnRq1cFdC-Rmwo-arh6QBuXHlDDCPhRnMXk7UDhO3dLjtzbkItndzXdxFfWqdUWUAMh7OZNHfAGoszwQR-dH-hcqOgycAxp9ushgPeSIgHjRZ1gLJDKgbzUn_gcrxv4jV9rmMOx9fls3m00]--></g></svg>